HIERARCHY
ROOT reference
{
	OFFSET 0.000000 0.000000 0.000000
	CHANNELS 6 Xposition Yposition Zposition Xrotation Yrotation Zrotation
	JOINT root
	{
		OFFSET 0.000000 85.220299 0.000000
		CHANNELS 3 Xrotation Yrotation Zrotation
		JOINT Hips
		{
			OFFSET 0.000000 0.000000 0.000000
			CHANNELS 3 Xrotation Yrotation Zrotation
			JOINT Spine
			{
				OFFSET 0.005142 -0.106468 -0.024531
				CHANNELS 3 Xrotation Yrotation Zrotation
				JOINT Spine1
				{
					OFFSET -1.568750 17.515099 5.934230
					CHANNELS 3 Xrotation Yrotation Zrotation
					JOINT Spine2
					{
						OFFSET -2.039969 17.560997 5.656650
						CHANNELS 3 Xrotation Yrotation Zrotation
						JOINT Neck
						{
							OFFSET -2.915259 16.329697 8.329130
							CHANNELS 3 Xrotation Yrotation Zrotation
							JOINT Head
							{
								OFFSET -3.723740 8.747269 6.527639
								CHANNELS 3 Xrotation Yrotation Zrotation
								End Site
								{
									OFFSET 0.000000 0.100006 0.000000
								}
							}
						}
						JOINT RightShoulder
						{
							OFFSET -6.465000 16.091202 7.548931
							CHANNELS 3 Xrotation Yrotation Zrotation
							JOINT RightArm
							{
								OFFSET -15.688601 -3.215790 -1.460299
								CHANNELS 3 Xrotation Yrotation Zrotation
								JOINT RightForearm
								{
									OFFSET -23.725801 -17.342896 0.986895
									CHANNELS 3 Xrotation Yrotation Zrotation
									JOINT RightHand
									{
										OFFSET -15.155701 -1.689102 19.719299
										CHANNELS 3 Xrotation Yrotation Zrotation
										End Site
										{
											OFFSET 0.000000 0.099998 0.000000
										}
									}
								}
							}
						}
						JOINT LeftShoulder
						{
							OFFSET 0.627641 16.556396 9.121471
							CHANNELS 3 Xrotation Yrotation Zrotation
							JOINT LeftArm
							{
								OFFSET 15.866400 -0.120667 2.617008
								CHANNELS 3 Xrotation Yrotation Zrotation
								JOINT LeftForearm
								{
									OFFSET 17.423401 -23.361198 -3.917280
									CHANNELS 3 Xrotation Yrotation Zrotation
									JOINT LeftHand
									{
										OFFSET -17.110798 -4.052429 17.669100
										CHANNELS 3 Xrotation Yrotation Zrotation
										End Site
										{
											OFFSET 0.000000 0.099998 0.000000
										}
									}
								}
							}
						}
					}
				}
			}
			JOINT RightUpLeg
			{
				OFFSET -9.351160 0.032570 -1.978339
				CHANNELS 3 Xrotation Yrotation Zrotation
				JOINT RightLeg
				{
					OFFSET -18.880398 -37.475601 16.318901
					CHANNELS 3 Xrotation Yrotation Zrotation
					JOINT RightFoot
					{
						OFFSET -0.221464 -39.411598 -11.926700
						CHANNELS 3 Xrotation Yrotation Zrotation
						JOINT RightToe
						{
							OFFSET -9.167408 -7.774330 13.403601
							CHANNELS 3 Xrotation Yrotation Zrotation
							End Site
							{
								OFFSET 0.000000 0.100000 0.000000
							}
						}
					}
				}
			}
			JOINT LeftUpLeg
			{
				OFFSET 9.351150 -0.032578 1.978339
				CHANNELS 3 Xrotation Yrotation Zrotation
				JOINT LeftLeg
				{
					OFFSET 20.837799 -39.380299 6.494509
					CHANNELS 3 Xrotation Yrotation Zrotation
					JOINT LeftFoot
					{
						OFFSET 14.441299 -33.869202 -18.436302
						CHANNELS 3 Xrotation Yrotation Zrotation
						JOINT LeftToe
						{
							OFFSET 7.298840 -11.545400 11.729000
							CHANNELS 3 Xrotation Yrotation Zrotation
							End Site
							{
								OFFSET 0.000000 0.100000 0.000000
							}
						}
					}
				}
			}
		}
	}
}
MOTION
Frames: 16
Frame Time: 0.041667
0.000000 0.000000 0.000000 -0.000000 0.000000 -0.000000 -0.000000 0.000001 -0.000000 -0.000001 0.000000 -0.000006 -0.000001 -0.000001 -0.000000 -0.000006 0.000002 0.000000 -0.000006 0.000000 0.000001 -0.000006 0.000007 0.000002 -0.000003 0.000003 -0.000006 0.000009 -0.000002 -0.000008 -0.000004 -0.000004 -0.000001 0.000000 0.000001 0.000005 -0.000002 -0.000001 -0.000004 0.000000 0.000000 -0.000001 0.000005 -0.000004 0.000004 0.000006 0.000006 0.000001 0.000004 -0.000005 0.000000 0.000009 0.000008 0.000006 -0.000002 -0.000003 0.000001 -0.000001 -0.000004 -0.000000 0.000004 0.000001 0.000005 -0.000005 0.000001 0.000000 -0.000003 -0.000000 -0.000010 0.000002 -0.000003 -0.000009 -0.000002 0.000000 0.000007 
0.000000 0.000000 0.000000 -0.000000 0.000000 -0.000000 -0.000000 0.000001 -0.000000 -0.000001 0.000000 -0.000006 -0.000001 -0.000001 -0.000000 -0.000006 0.000002 0.000000 -0.000006 0.000000 0.000001 -0.000006 0.000007 0.000002 -0.000003 0.000003 -0.000006 0.000009 -0.000002 -0.000008 -0.000004 -0.000004 -0.000001 0.000000 0.000001 0.000005 -0.000002 -0.000001 -0.000004 0.000000 0.000000 -0.000001 0.000005 -0.000004 0.000004 0.000006 0.000006 0.000001 0.000004 -0.000005 0.000000 0.000009 0.000008 0.000006 -0.000002 -0.000003 0.000001 -0.000001 -0.000004 -0.000000 0.000004 0.000001 0.000005 -0.000005 0.000001 0.000000 -0.000003 -0.000000 -0.000010 0.000002 -0.000003 -0.000009 -0.000002 0.000000 0.000007 
-5.064850 0.000000 0.523853 -0.000000 0.000000 -0.000000 0.065302 1.855662 0.490586 -0.126507 -0.171113 0.599206 0.135533 0.149869 -0.507434 0.200170 0.042134 -0.765557 0.134655 0.070885 -0.517058 0.365411 -0.464630 0.375551 0.262261 -0.925046 0.867575 0.105483 -0.394034 -0.749850 0.744007 -1.768059 1.320331 -0.192304 0.256512 -0.125649 0.386755 0.322287 -0.256536 -0.232584 -0.045168 1.157658 -0.148191 -2.064077 -3.072932 -3.030334 -1.589134 -3.316578 1.086164 0.448428 -0.882218 1.339527 -1.389299 4.014411 -1.321194 0.288025 -0.889992 0.656079 -1.100075 -3.971634 -1.169476 0.017662 -0.495978 0.708481 -0.670895 -0.604508 -4.664621 -2.387509 0.580644 8.020096 2.616612 -3.170190 -0.566695 -0.533759 -0.151263 
-10.710600 0.000000 1.080181 -0.000000 0.000000 -0.000000 0.092074 3.761258 0.773217 -0.187144 -0.254213 0.889297 0.323569 0.139918 -0.682552 0.470633 -0.048270 -1.043755 0.320816 0.030438 -0.709905 0.445105 -0.995013 0.574204 0.179675 -1.925516 1.202589 0.178179 -0.731495 -1.129616 0.174149 -3.381539 1.033129 0.205201 -0.272415 0.134595 0.981667 0.727582 -1.068737 -0.397893 -0.023238 1.991276 0.077495 -4.013146 -5.618417 -6.456242 -3.124025 -7.048073 1.075998 0.429973 -1.144532 2.425565 -2.533807 7.787682 -3.136028 0.718781 -2.106286 4.029023 -2.127499 -2.855120 -4.593045 0.400969 -5.032110 -1.316932 1.265113 -2.960756 -5.561009 -2.852287 0.670138 8.973279 2.290591 -6.009147 7.909279 -0.626069 2.856341 
-17.212200 0.000000 1.687951 -0.000000 0.000000 -0.000000 0.097659 5.294269 0.851506 -0.153110 -0.207281 0.726225 0.529689 -0.058795 -0.471463 0.761022 -0.261739 -0.744931 0.524018 -0.120774 -0.517436 0.272805 -1.506133 0.592491 -0.184063 -2.850551 1.030974 0.195489 -0.869104 -1.107890 -1.629919 -4.328187 -1.071733 1.236276 -1.620943 0.819168 1.566907 1.093170 -2.288276 -0.473510 -0.003134 2.377385 0.885010 -5.379605 -7.260929 -10.255831 -4.520888 -11.168864 -0.062788 -0.102400 -0.679633 2.756996 -2.688464 10.595187 -4.312384 1.019732 -2.890518 9.666963 -2.893628 5.358817 -8.715839 1.745714 -14.647245 -5.603641 5.677905 -6.256457 -1.830921 -0.930166 0.250701 4.114510 0.217537 -8.856926 20.364069 1.104860 7.768940 
-25.969200 0.000000 2.842102 -0.000000 0.000000 -0.000000 0.201436 6.143120 0.549332 -0.058232 -0.079715 0.274814 0.659476 -0.412964 0.030352 0.947612 -0.614180 -0.022676 0.659808 -0.390501 -0.044905 0.373349 -1.771868 0.762300 -0.176239 -3.375636 1.341938 0.187517 -0.888969 -0.949274 -2.770511 -3.706441 -4.120930 2.423379 -3.131324 1.623628 1.475030 1.227194 -2.644209 -0.587826 0.145242 2.919031 2.423782 -5.851292 -8.085262 -13.787379 -5.546589 -14.986074 -0.810466 -0.520819 -0.389699 1.993028 -1.267114 11.769119 -3.333470 0.768096 -2.238160 14.705910 -2.156076 26.444775 -6.761182 1.613094 -35.146087 -10.021117 11.564414 -8.810375 3.359049 1.677887 -0.534860 3.400615 -0.689043 -9.841301 20.362312 1.133655 8.464004 
-36.953999 0.000000 2.398023 -0.000000 0.000000 -0.000000 0.148497 6.162428 -0.042546 0.044850 0.059570 -0.210511 0.757715 -0.574018 0.647380 1.080567 -0.704582 0.879083 0.752173 -0.493314 0.562231 0.492458 -1.900539 0.826479 -0.042141 -3.645988 1.514787 0.217187 -1.039041 -1.087686 -3.123298 -2.898662 -6.852796 3.103160 -3.975783 2.091757 1.595191 1.627187 -3.162029 -0.623768 0.067629 3.147216 3.885840 -5.739717 -7.637737 -16.908243 -6.244036 -18.351605 -0.423283 -0.254375 -1.024190 1.205992 1.050983 11.567468 -1.140921 0.247454 -0.768778 15.500114 -0.121950 42.096320 -2.014445 -1.244331 -30.214868 -12.233275 13.830939 -11.071943 7.755004 3.806387 -1.376647 4.285520 -0.715348 -16.844459 18.802508 0.524409 7.247836 
-48.332901 0.000000 1.421054 -0.000000 0.000000 -0.000000 -0.070865 5.505113 -0.810088 0.139626 0.183546 -0.652185 0.784457 -0.535529 1.269902 1.103522 -0.555021 1.795954 0.764603 -0.437068 1.191480 0.583431 -1.898597 0.725916 0.184849 -3.661138 1.419459 0.276937 -1.274338 -1.501945 -2.869150 -2.413584 -8.891025 3.070063 -3.935013 2.068844 2.005686 2.270839 -3.939318 -0.599229 -0.137317 3.105874 5.034649 -5.054792 -5.787464 -19.539860 -6.684498 -21.185392 0.935197 0.587773 -2.507970 0.789210 1.232236 10.331707 1.516103 -0.304082 1.025553 14.241729 2.556843 46.405084 3.661238 -0.066505 -2.577943 -12.304247 12.417616 -13.264611 10.507102 5.093424 -1.982213 6.307974 -1.373103 -29.206821 18.065866 0.460835 9.162820 
-59.625000 0.000000 0.444082 -0.000000 0.000000 -0.000000 -0.090445 4.954344 -1.415982 0.219144 0.286462 -1.019552 0.529393 -0.659358 1.665725 0.751000 -0.659337 2.374414 0.527686 -0.544010 1.579017 0.624739 -1.703308 0.437464 0.499044 -3.292621 1.008045 0.256171 -1.043309 -1.642703 -2.819784 -2.651535 -10.119432 2.371044 -3.065702 1.587815 2.274527 2.601897 -4.437934 -0.738713 0.512015 3.564482 6.232795 -3.957338 -2.798691 -21.800366 -6.957220 -23.617375 0.962550 1.012378 -3.122673 0.629274 -3.353529 8.452018 2.856408 -0.549419 1.935671 17.329288 0.313760 35.759025 4.250110 0.059812 -1.266228 -11.731037 11.008783 -14.968353 9.904727 4.814977 -1.844632 9.966517 -2.244077 -35.976611 19.903742 7.566855 36.134668 
-70.349403 0.000000 0.000005 -0.000000 0.000000 -0.000000 -0.264823 4.262754 -1.697648 0.362828 0.469131 -1.676106 0.197830 -0.907692 1.996121 0.296462 -0.853592 2.881173 0.223067 -0.709567 1.914079 0.756513 -1.321902 0.129196 0.995260 -2.584802 0.670832 0.181268 -0.562617 -1.502994 -3.009446 -2.779839 -11.135663 1.750343 -2.280546 1.165456 2.484325 2.820472 -4.824996 -0.613539 0.486557 2.902586 7.201144 -1.486842 1.190536 -23.332075 -7.087227 -25.264298 0.850567 1.110981 -3.277179 1.537372 -5.631120 6.156025 0.775954 -0.159165 0.524343 19.017818 -2.632568 26.263742 4.142813 -0.095830 -2.644660 -9.888401 11.468075 -15.555310 6.815977 3.358835 -1.183673 9.350190 -2.203024 -30.396555 14.720320 3.428226 47.715237 
-77.370697 0.000000 0.000006 -0.000000 0.000000 -0.000000 -0.515753 3.395708 -1.624553 0.545351 0.694804 -2.497373 -0.122737 -1.185912 2.236687 -0.141646 -1.045903 3.275645 -0.070969 -0.867106 2.173308 0.901711 -0.843131 -0.128001 1.477538 -1.699719 0.445800 0.096401 -0.082716 -1.251198 -3.477358 -2.567415 -11.761164 1.361073 -1.781840 0.902941 2.577691 2.848528 -5.045479 -0.242635 -0.193723 1.264967 7.606607 1.812091 5.245000 -23.749179 -7.115006 -25.712744 0.659509 0.981545 -3.053517 3.565590 -5.500985 3.721599 -4.658247 1.111482 -3.120417 20.320550 -3.812885 21.344674 4.380930 -0.110530 -2.677550 -7.348994 14.145316 -14.922619 2.544343 1.274665 -0.396363 4.288872 -4.024365 -14.773265 2.688972 -7.672129 35.770957 
-84.548103 0.000000 -0.599390 -0.000000 0.000000 -0.000000 -0.177316 2.326972 -1.137038 0.592910 0.752660 -2.709155 -0.289472 -1.196675 2.131331 -0.378750 -0.970884 3.164312 -0.233546 -0.815237 2.101759 0.567503 -0.588835 -0.226185 1.030676 -1.184468 0.031095 0.212152 -0.593393 -1.868174 -4.388472 -1.744074 -10.544838 1.051600 -1.381896 0.695567 2.231995 2.150526 -4.712243 -0.152547 0.189141 0.672322 6.685352 2.694380 6.541968 -21.941925 -6.971080 -23.769552 0.307276 1.338768 -3.108151 5.503617 -5.307126 1.348475 -12.102334 3.446632 -7.983326 24.584412 -3.907763 19.005090 6.100798 -0.226216 -2.568420 -5.938743 11.406033 -13.635563 2.121698 1.064494 -0.326703 -2.235794 -8.085780 -5.719375 3.927319 -5.227020 24.847277 
-91.571198 0.000000 -0.151951 -0.000000 0.000000 -0.000000 0.027789 1.199077 -0.821061 0.528561 0.674447 -2.422427 -0.330187 -0.909896 1.881694 -0.454225 -0.639111 2.816060 -0.291208 -0.575111 1.881092 0.290623 -0.551404 -0.348522 0.697848 -1.068372 -0.401340 0.210096 -0.714258 -1.616115 -4.805550 -1.992074 -9.209095 0.467023 -0.618060 0.307138 1.699864 1.613286 -4.022508 -0.106598 0.498639 0.333564 5.267821 2.688432 6.172156 -18.096117 -6.459359 -19.631173 -0.241729 1.278809 -2.634137 7.825478 -0.859956 -1.714061 -16.551695 5.172278 -10.795571 28.073070 -3.129143 22.215708 -1.596226 0.150270 -3.413862 -5.493156 9.318864 -11.227579 3.106297 1.553065 -0.491302 -6.641869 -10.721704 -0.637970 6.211190 -2.900662 16.292354 
-97.808098 0.000000 0.737490 -0.000000 0.000000 -0.000000 -0.050622 0.170231 -0.769132 0.379731 0.490287 -1.752744 -0.255030 -0.413395 1.539158 -0.375754 -0.152583 2.302544 -0.247986 -0.219451 1.555201 0.161703 -0.641736 -0.504071 0.639178 -1.195702 -0.773779 0.078849 -0.340422 -0.462309 -4.534351 -3.091469 -7.892375 -0.288360 0.385063 -0.188196 1.098209 1.351321 -3.135411 -0.066135 0.508076 0.135472 3.504558 2.321242 4.614008 -12.673643 -5.250678 -13.783436 -0.631661 0.902329 -1.954785 10.186649 6.725457 -5.504889 -15.862718 4.888922 -10.365515 26.485061 -2.898076 28.172754 -14.927129 1.442864 -6.236938 -5.553013 8.681873 -7.922821 4.507541 2.241901 -0.739531 -8.848510 -11.288122 0.892688 7.043706 -1.671300 10.820861 
-101.359001 0.000000 -0.788449 -0.000000 0.000000 -0.000000 -0.410336 -0.311652 -0.691333 0.257933 0.336274 -1.197691 -0.076916 -0.120406 1.125532 -0.136173 0.093353 1.680064 -0.091371 -0.018560 1.144330 0.014955 -0.457329 -0.578951 0.498327 -0.816775 -0.989279 0.036729 -0.240155 -0.029098 -3.769494 -2.769775 -5.289393 -0.455750 0.609808 -0.296948 0.599007 0.988199 -2.564548 -0.033645 0.161526 0.104819 2.149094 1.618002 2.651276 -6.773998 -3.252917 -7.393328 1.557069 1.432927 -3.887462 5.989570 4.359916 -4.543891 -8.557745 2.248660 -5.689569 12.795206 -2.696910 20.933983 -7.631116 0.770527 -7.554934 -3.993619 6.823540 -4.694945 3.999911 1.993251 -0.647713 -9.765867 -10.453942 1.883067 8.539774 -0.565581 5.313025 
-104.762001 0.000000 -1.223472 -0.000000 0.000000 -0.000000 -0.425722 -0.322870 -0.437937 0.130597 0.171841 -0.610309 0.009443 -0.007413 0.594274 -0.006747 0.113658 0.885888 -0.005535 0.035338 0.606399 -0.020609 -0.203779 -0.390127 0.300879 -0.344981 -0.675126 0.014638 -0.137500 0.086267 -2.154652 -1.601603 -2.460699 -0.288761 0.385596 -0.188470 0.232989 0.505400 -1.501093 -0.010078 -0.010985 0.052377 0.998429 0.744053 1.042076 -2.253379 -1.202967 -2.467773 1.774338 1.047890 -3.141296 2.245975 1.433481 -2.515817 -2.789892 0.633490 -1.874891 3.131958 -1.096815 10.709290 -1.429617 0.147281 -5.010200 -1.984838 3.942987 -1.943038 2.225243 1.116048 -0.343629 -6.481086 -6.204798 2.041976 6.063349 -0.066980 1.406967 
